<svg width="18" height="18" viewBox="0 0 18 18" fill="none" xmlns="http://www.w3.org/2000/svg">
<path fillRule="evenodd" clipRule="evenodd" d="M17.4711 1.47132C17.7314 1.21097 17.7314 0.788864 17.4711 0.528514C17.2107 0.268165 16.7886 0.268165 16.5283 0.528514L8.99967 8.05711L1.47108 0.528514C1.21073 0.268165 0.788619 0.268165 0.52827 0.528514C0.26792 0.788864 0.26792 1.21097 0.52827 1.47132L8.05686 8.99992L0.52827 16.5285C0.26792 16.7889 0.26792 17.211 0.52827 17.4713C0.788619 17.7317 1.21073 17.7317 1.47108 17.4713L8.99967 9.94273L16.5283 17.4713C16.7886 17.7317 17.2107 17.7317 17.4711 17.4713C17.7314 17.211 17.7314 16.7889 17.4711 16.5285L9.94248 8.99992L17.4711 1.47132Z" fill="white"/>
</svg>
