<svg width="20" height="20" viewBox="0 0 20 20" fill="none" xmlns="http://www.w3.org/2000/svg">
<path fillRule="evenodd" clipRule="evenodd" d="M15.2943 5.29479C15.457 5.13207 15.457 4.86825 15.2943 4.70553C15.1316 4.54282 14.8678 4.54282 14.705 4.70553L9.99967 9.41091L5.2943 4.70553C5.13158 4.54282 4.86777 4.54282 4.70505 4.70553C4.54233 4.86825 4.54233 5.13207 4.70505 5.29479L9.41042 10.0002L4.70505 14.7055C4.54233 14.8683 4.54233 15.1321 4.70505 15.2948C4.86777 15.4575 5.13158 15.4575 5.2943 15.2948L9.99967 10.5894L14.705 15.2948C14.8678 15.4575 15.1316 15.4575 15.2943 15.2948C15.457 15.1321 15.457 14.8683 15.2943 14.7055L10.5889 10.0002L15.2943 5.29479Z" fill="black"/>
</svg>
