<svg width="18" height="18" viewBox="0 0 18 18" fill="none" xmlns="http://www.w3.org/2000/svg">
<path fillRule="evenodd" clipRule="evenodd" d="M8.99986 1.08333C4.6276 1.08333 1.08319 4.62775 1.08319 9C1.08319 10.5177 1.50988 11.9346 2.24965 13.1385L2.36264 13.3224L1.03683 16.4159C0.888668 16.7616 1.23822 17.1112 1.58394 16.963L4.6775 15.6372L4.86139 15.7502C6.0653 16.49 7.48211 16.9167 8.99986 16.9167C13.3721 16.9167 16.9165 13.3723 16.9165 9C16.9165 4.62775 13.3721 1.08333 8.99986 1.08333ZM0.249857 9C0.249857 4.16751 4.16736 0.25 8.99986 0.25C13.8323 0.25 17.7499 4.16751 17.7499 9C17.7499 13.8325 13.8323 17.75 8.99986 17.75C7.40154 17.75 5.90225 17.3211 4.61205 16.5719L1.91221 17.729C0.875059 18.1735 -0.173618 17.1248 0.270877 16.0877L1.42795 13.3878C0.678769 12.0976 0.249857 10.5983 0.249857 9ZM5.24986 7.33333C5.24986 7.10321 5.4364 6.91667 5.66652 6.91667H8.16652C8.39664 6.91667 8.58319 7.10321 8.58319 7.33333C8.58319 7.56345 8.39664 7.75 8.16652 7.75H5.66652C5.4364 7.75 5.24986 7.56345 5.24986 7.33333ZM5.24986 10.6667C5.24986 10.4365 5.4364 10.25 5.66652 10.25H12.3332C12.5633 10.25 12.7499 10.4365 12.7499 10.6667C12.7499 10.8968 12.5633 11.0833 12.3332 11.0833H5.66652C5.4364 11.0833 5.24986 10.8968 5.24986 10.6667Z" fill="#717171"/>
</svg>
