<svg width="20" height="16" viewBox="0 0 20 16" fill="none" xmlns="http://www.w3.org/2000/svg">
<path fillRule="evenodd" clipRule="evenodd" d="M13.1748 0.115225C13.3305 0.0507331 13.5097 0.0863813 13.6289 0.205547L19.4622 6.03888C19.6249 6.2016 19.6249 6.46542 19.4622 6.62814L13.6289 12.4615C13.5097 12.5806 13.3305 12.6163 13.1748 12.5518C13.0191 12.4873 12.9176 12.3354 12.9176 12.1668V9.25017H12.0842C7.41557 9.25017 3.34415 11.8094 1.19727 15.6035C1.10374 15.7688 0.91027 15.8499 0.726818 15.8008C0.543366 15.7516 0.41636 15.5847 0.417984 15.3948C0.474641 8.76981 5.86261 3.41684 12.5009 3.41684H12.9176V0.500175C12.9176 0.331649 13.0191 0.179717 13.1748 0.115225ZM13.7509 1.5061V4.25017H12.5009C6.86508 4.25017 2.19718 8.39432 1.37827 13.8015C3.8079 10.5344 7.69855 8.41684 12.0842 8.41684H13.7509V11.1609L18.5783 6.33351L13.7509 1.5061Z" fill="#717171"/>
</svg>
